HIERARCHY
ROOT Hips
{
	OFFSET	0.000000	0.000000	0.000000
	CHANNELS 6 Xposition Yposition Zposition Zrotation Xrotation Yrotation
	JOINT LeftHip
	{
		OFFSET	4.740440	-3.195970	-0.322709
		CHANNELS 3 Zrotation Xrotation Yrotation
		JOINT LeftKnee
		{
			OFFSET	-1.605680	-15.592300	1.005510
			CHANNELS 3 Zrotation Xrotation Yrotation
			JOINT LeftAnkle
			{
				OFFSET	-0.632401	-16.421000	-1.413730
				CHANNELS 3 Zrotation Xrotation Yrotation
				End Site
				{
					OFFSET	0.008423	-2.933000	-1.684880
				}
			}
		}
	}
	JOINT RightHip
	{
		OFFSET	-4.740440	-3.195970	-0.322709
		CHANNELS 3 Zrotation Xrotation Yrotation
		JOINT RightKnee
		{
			OFFSET	1.605680	-15.592300	1.005510
			CHANNELS 3 Zrotation Xrotation Yrotation
			JOINT RightAnkle
			{
				OFFSET	0.632401	-16.421000	-1.413730
				CHANNELS 3 Zrotation Xrotation Yrotation
				End Site
				{
					OFFSET	-0.008423	-2.933000	-1.684880
				}
			}
		}
	}
	JOINT Chest
	{
		OFFSET	0.000000	3.468200	0.078401
		CHANNELS 3 Zrotation Xrotation Yrotation
		JOINT LeftCollar
		{
			OFFSET	3.857650	15.070700	-0.011583
			CHANNELS 3 Zrotation Xrotation Yrotation
			JOINT LeftShoulder
			{
				OFFSET	3.979720	-1.940530	-0.165223
				CHANNELS 3 Zrotation Xrotation Yrotation
				JOINT LeftElbow
				{
					OFFSET	0.615844	-10.986600	-0.673886
					CHANNELS 3 Zrotation Xrotation Yrotation
					JOINT LeftWrist
					{
						OFFSET	0.826843	-10.854500	1.034220
						CHANNELS 3 Zrotation Xrotation Yrotation
						End Site
						{
							OFFSET	-1.679080	-8.456540	0.936217
						}
					}
				}
			}
		}
		JOINT RightCollar
		{
			OFFSET	-3.857650	15.070700	-0.011583
			CHANNELS 3 Zrotation Xrotation Yrotation
			JOINT RightShoulder
			{
				OFFSET	-3.979720	-1.940530	-0.165223
				CHANNELS 3 Zrotation Xrotation Yrotation
				JOINT RightElbow
				{
					OFFSET	-0.615845	-10.986600	-0.673886
					CHANNELS 3 Zrotation Xrotation Yrotation
					JOINT RightWrist
					{
						OFFSET	-0.826843	-10.854500	1.034220
						CHANNELS 3 Zrotation Xrotation Yrotation
						End Site
						{
							OFFSET	1.679080	-8.456540	0.936217
						}
					}
				}
			}
		}
		JOINT Neck
		{
			OFFSET	0.000000	15.101400	0.055730
			CHANNELS 3 Zrotation Xrotation Yrotation
			JOINT Head
			{
				OFFSET	0.000000	4.185120	1.488260
				CHANNELS 3 Zrotation Xrotation Yrotation
				End Site
				{
					OFFSET	0.000000	7.773420	-0.106016
				}
			}
		}
	}
}
MOTION
Frames:     9
Frame Time: 0.016667
1.621684	37.751411	-1.004610	3.380366	-8.684446	-13.667936	-4.624731	5.470359	-0.810659	-3.127807	2.275324	9.028194	4.468468	-1.887610	6.389686	-18.641415	-2.174578	-4.561237	1.663983	16.567345	4.775643	10.128476	-5.675955	3.966430	-10.291849	5.540823	-3.948082	0.256398	3.891990	0.331574	3.942136	-3.956496	3.548408	-6.565335	-6.950868	-16.760857	12.832302	6.153625	-17.768351	5.504225	3.118355	0.776622	-5.678926	-3.131081	5.336984	0.178040	-6.811955	9.546236	-23.451286	0.633382	19.981920	2.487720	13.636999	-9.653849	11.774308	8.681068	-12.274533	
1.621684	37.751411	-1.004610	3.380366	-8.684446	-13.667936	-4.624654	5.470604	-0.810001	-3.127852	2.275114	9.027520	4.468468	-1.887610	6.389686	-18.641415	-2.174578	-4.561237	1.663983	16.567345	4.775643	10.128476	-5.675955	3.966430	-10.291464	5.540979	-3.947358	0.274052	3.904254	0.335597	3.919516	-3.949072	3.541013	-6.585042	-6.955492	-16.763561	12.837852	6.151237	-17.763813	5.503895	3.118096	0.775881	-5.678442	-3.131450	5.357332	0.175166	-6.811605	9.525770	-23.447456	0.634159	20.005104	2.491640	13.635517	-9.645584	11.753170	8.665885	-12.275519	
1.621684	37.751411	-1.004610	3.380366	-8.684446	-13.667936	-4.624654	5.470604	-0.810001	-3.127852	2.275114	9.027520	4.468468	-1.887610	6.389686	-18.641415	-2.174578	-4.561237	1.663983	16.567345	4.775643	10.128476	-5.675955	3.966430	-10.291464	5.540979	-3.947358	0.279809	3.908245	0.337132	3.912162	-3.946237	3.538599	-6.591375	-6.957369	-16.764442	12.838626	6.150766	-17.762178	5.503895	3.118096	0.775881	-5.678292	-3.131561	5.363437	0.174299	-6.811499	9.519630	-23.446312	0.634390	20.012018	2.493649	13.634899	-9.641161	11.716434	8.637362	-12.263988	
1.621684	37.751411	-1.004610	3.380366	-8.684446	-13.667936	-4.624654	5.470604	-0.810001	-3.127852	2.275114	9.027520	4.468468	-1.887610	6.389686	-18.641415	-2.174578	-4.561237	1.663983	16.567345	4.775643	10.128476	-5.675955	3.966430	-10.291464	5.540979	-3.947358	0.297155	3.920280	0.341755	3.890207	-3.938441	3.531402	-6.589469	-6.977056	-16.764978	12.815200	6.157824	-17.758411	5.503895	3.118096	0.775881	-5.677865	-3.131887	5.381057	0.171803	-6.811189	9.501904	-23.445103	0.634644	20.019274	2.495676	13.634278	-9.636691	11.625605	8.580050	-12.228665	
1.621684	37.751411	-1.004610	3.380366	-8.684446	-13.667936	-4.624654	5.470604	-0.810001	-3.127852	2.275114	9.027520	4.468468	-1.887610	6.389686	-18.641415	-2.174578	-4.561237	1.663983	16.567345	4.775643	10.128476	-5.675955	3.966430	-10.291464	5.540979	-3.947358	0.302898	3.924265	0.343287	3.880321	-3.923511	3.527663	-6.586865	-6.996251	-16.775255	12.805805	6.162558	-17.747473	5.503895	3.118096	0.775881	-5.677738	-3.131990	5.386502	0.171036	-6.811090	9.496427	-23.445103	0.634644	20.019274	2.496968	13.633881	-9.633832	11.562414	8.506826	-12.218482	
1.621684	37.751411	-1.004610	3.380366	-8.684446	-13.667936	-4.624654	5.470604	-0.810001	-3.127852	2.275114	9.027520	4.468468	-1.887610	6.389686	-18.641415	-2.174578	-4.561237	1.663983	16.567345	4.775643	10.128476	-5.675955	3.966430	-10.291464	5.540979	-3.947358	0.326437	3.940626	0.349573	3.854986	-3.934099	3.520196	-6.586032	-7.002434	-16.776972	12.780085	6.170635	-17.742073	5.503895	3.118096	0.775881	-5.677721	-3.131998	5.387258	0.170930	-6.811083	9.495670	-23.445103	0.634644	20.019274	2.498744	13.633339	-9.629927	11.512747	8.447955	-12.208793	
1.621684	37.751411	-1.004610	3.380366	-8.684446	-13.667936	-4.624654	5.470604	-0.810001	-3.127852	2.275114	9.027520	4.468468	-1.887610	6.389686	-18.641415	-2.174578	-4.561237	1.663983	16.567345	4.775643	10.128476	-5.675955	3.966430	-10.291464	5.540979	-3.947358	0.338083	3.948706	0.352675	3.841751	-3.936026	3.516144	-6.568860	-7.020233	-16.775452	12.752879	6.179392	-17.741871	5.503895	3.118096	0.775881	-5.677721	-3.131998	5.387258	0.170930	-6.811083	9.495670	-23.445103	0.634644	20.019274	2.500064	13.632935	-9.627033	11.499639	8.420702	-12.213388	
1.621684	37.751411	-1.004610	3.380366	-8.684446	-13.667936	-4.624654	5.470604	-0.810001	-3.127852	2.275114	9.027520	4.468468	-1.887610	6.389686	-18.641415	-2.174578	-4.561237	1.663983	16.567345	4.775643	10.128476	-5.675955	3.966430	-10.291464	5.540979	-3.947358	0.349414	3.956574	0.355685	3.826314	-3.925731	3.510890	-6.545742	-7.053148	-16.773762	12.704192	6.194774	-17.739391	5.503895	3.118096	0.775881	-5.677721	-3.131998	5.387258	0.170930	-6.811083	9.495670	-23.445103	0.634644	20.019274	2.500064	13.632935	-9.627033	11.499639	8.420702	-12.213388	
1.621684	37.751411	-1.004610	3.380366	-8.684446	-13.667936	-4.624654	5.470604	-0.810001	-3.127852	2.275114	9.027520	4.468468	-1.887610	6.389686	-18.641415	-2.174578	-4.561237	1.663983	16.567345	4.775643	10.128476	-5.675955	3.966430	-10.291464	5.540979	-3.947358	0.360441	3.964230	0.358618	3.811553	-3.916925	3.505908	-6.520745	-7.085817	-16.771811	12.669724	6.205927	-17.739565	5.503895	3.118096	0.775881	-5.677721	-3.131998	5.387258	0.170930	-6.811083	9.495670	-23.445103	0.634644	20.019274	2.500064	13.632935	-9.627033	11.499639	8.420702	-12.213388	
